<svg width="30" height="31" viewBox="0 0 30 31" fill="none" xmlns="http://www.w3.org/2000/svg">
<path fill-rule="evenodd" clip-rule="evenodd" d="M30 15.6562C30 23.9405 23.2843 30.6562 15 30.6562C6.71572 30.6562 0 23.9405 0 15.6562C0 7.37197 6.71572 0.65625 15 0.65625C23.2843 0.65625 30 7.37197 30 15.6562ZM15.5375 11.7299C14.0786 12.3367 11.1627 13.5927 6.78989 15.4979C6.07981 15.7802 5.70785 16.0565 5.67399 16.3266C5.61675 16.7831 6.18841 16.9629 6.96686 17.2076C7.07275 17.241 7.18248 17.2755 7.29495 17.312C8.06083 17.561 9.09105 17.8522 9.62664 17.8638C10.1125 17.8743 10.6547 17.674 11.2533 17.2629C15.339 14.505 17.448 13.111 17.5804 13.081C17.6739 13.0598 17.8033 13.0331 17.891 13.1111C17.9786 13.189 17.9701 13.3366 17.9608 13.3762C17.9041 13.6176 15.6601 15.7039 14.4989 16.7835C14.1369 17.12 13.8801 17.3587 13.8276 17.4132C13.71 17.5355 13.5901 17.651 13.475 17.762C12.7635 18.4479 12.2299 18.9622 13.5045 19.8022C14.1171 20.2059 14.6072 20.5396 15.0962 20.8726C15.6302 21.2364 16.1629 21.5991 16.852 22.0509C17.0276 22.166 17.1952 22.2855 17.3586 22.4019C17.9801 22.845 18.5385 23.243 19.2283 23.1795C19.6291 23.1426 20.0431 22.7658 20.2534 21.6418C20.7502 18.9853 21.727 13.2294 21.9528 10.8575C21.9726 10.6497 21.9478 10.3837 21.9277 10.267C21.9077 10.1502 21.866 9.98389 21.7143 9.86075C21.5345 9.71492 21.2571 9.68418 21.133 9.68635C20.5688 9.6963 19.7033 9.99727 15.5375 11.7299Z" fill="white"/>
</svg>
