<svg width="30" height="30" viewBox="0 0 30 30" fill="none" xmlns="https://www.w3.org/2000/svg">
<path fill-rule="evenodd" clip-rule="evenodd" d="M25.6288 4.35949C22.8338 1.55947 19.0288 -0.0104714 15.063 5.25704e-05C6.82923 5.25704e-05 0.128204 6.66821 0.125339 14.8646C0.121823 17.4732 0.809609 20.0366 2.11931 22.2962L0 30L7.91862 27.9329C10.1085 29.1205 12.5627 29.7427 15.0566 29.7427H15.063C23.2954 29.7427 29.997 23.0738 29.9999 14.8775C30.0127 10.9312 28.4387 7.14386 25.6288 4.35949ZM21.8729 17.9745C21.4997 17.7884 19.6648 16.8904 19.3224 16.7627C18.9801 16.6352 18.7315 16.5767 18.483 16.9488C18.2345 17.3209 17.519 18.157 17.3013 18.4051C17.0835 18.653 16.8658 18.6837 16.4925 18.4977C16.1194 18.3117 14.9169 17.9196 13.4909 16.6545C12.3814 15.6693 11.6287 14.4533 11.4138 14.0812C11.199 13.7091 11.3909 13.511 11.5778 13.3228C11.7454 13.1567 11.951 12.8894 12.1372 12.6721C12.3234 12.4547 12.3865 12.3007 12.5103 12.0526C12.6343 11.8046 12.5726 11.5879 12.4795 11.4019C12.3865 11.2158 11.6394 9.38751 11.3286 8.64407C11.0256 7.91987 10.7184 8.01752 10.4892 8.00255C10.2743 7.99186 10.0222 7.98973 9.77294 7.98973C9.39047 7.99968 9.02958 8.16815 8.77738 8.45447C8.43574 8.82654 7.4717 9.72466 7.4717 11.553C7.4717 13.3813 8.80889 15.1475 8.99511 15.3956C9.18134 15.6437 11.6273 19.3951 15.3696 21.0046C16.0646 21.3029 16.7748 21.5646 17.4975 21.7887C18.3913 22.0738 19.2049 22.0317 19.8481 21.9362C20.5644 21.8293 22.0563 21.0373 22.3678 20.1698C22.6793 19.3025 22.6787 18.5583 22.5827 18.4036C22.4867 18.2489 22.246 18.1634 21.8729 17.9773V17.9745Z" fill="white"/>
</svg>
