<svg width="150" height="150" viewBox="0 0 150 150" fill="none" xmlns="https://www.w3.org/2000/svg">
<path d="M150 75C150 33.5736 116.421 0 75 0C33.5793 0 0 33.5736 0 75C0 116.421 33.5793 150 75 150C116.421 150 150 116.421 150 75ZM6.00549 75C6.00549 36.9538 36.9595 5.99977 75.0057 5.99977C113.052 5.99977 144.006 36.9538 144.006 75C144.006 113.046 113.058 144 75.0057 144C36.9595 144 6.00549 113.046 6.00549 75Z" fill="#352F24"/>
<path d="M107.015 70.4159L111.229 66.1914L74.9975 29.873L38.7715 66.1914L42.9859 70.4159L72.0212 41.3111V113.771H77.9794V41.3111L107.015 70.4159Z" fill="#352F24"/>
</svg>
