<svg width="30" height="30" viewBox="0 0 30 30" fill="none" xmlns="https://www.w3.org/2000/svg">
<g clip-path="url(#clip0_212_38)">
<path d="M15.3589 0C6.87639 0 0 6.71573 0 15C0 23.2843 6.87639 30 15.3589 30C20.1467 30 24.5724 27.8452 27.4652 24.2317C27.807 23.8048 27.7296 23.188 27.2925 22.8542C26.8553 22.5204 26.2238 22.5959 25.882 23.0229C23.3662 26.1656 19.5217 28.0374 15.3589 28.0374C7.98625 28.0374 2.00957 22.2003 2.00957 15C2.00957 7.79965 7.98625 1.96262 15.3589 1.96262C19.461 1.96262 23.2554 3.77983 25.7749 6.84501C26.1223 7.26764 26.7547 7.33522 27.1874 6.99594C27.6202 6.65667 27.6893 6.03902 27.342 5.61639C24.445 2.092 20.0768 0 15.3589 0ZM14.542 10.2936L10.4821 14.3535C10.0897 14.7459 10.0822 15.3747 10.4655 15.7579L14.4305 19.723C14.8138 20.1062 15.4425 20.0988 15.8349 19.7064C16.2273 19.314 16.2348 18.6852 15.8515 18.302L13.53 15.9801L28.9952 15.9813C29.5501 15.9813 30 15.542 30 15C30 14.458 29.5501 14.0187 28.9952 14.0187L13.593 14.0181L15.9298 11.6814C16.3222 11.289 16.3296 10.6602 15.9464 10.277C15.5632 9.89377 14.9344 9.9012 14.542 10.2936Z" fill="white"/>
</g>
<defs>
<clipPath id="clip0_212_38">
<rect width="30" height="30" fill="white" transform="matrix(-1 0 0 1 30 0)"/>
</clipPath>
</defs>
</svg>
