<svg width="30" height="30" viewBox="0 0 30 30" fill="none" xmlns="https://www.w3.org/2000/svg">
<path d="M20.8027 6.49406C22.1165 6.49406 23.1818 5.3897 23.1818 4.02816C23.1818 2.66656 22.1165 1.56274 20.8027 1.56274C19.4882 1.56274 18.4229 2.66662 18.4229 4.02816C18.4229 5.3897 19.4882 6.49406 20.8027 6.49406Z" fill="black"/>
<path d="M29.8478 13.5698L28.2701 11.1109C27.8867 10.5299 27.3783 10.0493 26.7859 9.70513L23.6916 7.90962C23.1247 7.63496 22.6958 7.46023 22.1571 7.53569L20.6766 7.7443C20.1245 7.82171 19.6213 8.11325 19.2681 8.55961L16.45 11.6671L13.8687 12.6533C13.3796 12.84 13.1172 13.3901 13.2718 13.9056L13.2838 13.9453C13.4357 14.4527 13.9398 14.7522 14.439 14.633L16.5425 14.13C17.0671 14.0044 17.5655 13.7805 18.0116 13.4686L19.4747 12.4497L19.9912 16.5194C20.0292 16.8179 19.9711 17.1213 19.8259 17.3824L15.4455 25.2658C15.1331 25.8269 15.318 26.5449 15.8586 26.8717L15.8962 26.8945C16.4081 27.2033 17.0627 27.0543 17.4015 26.5519L22.2975 19.2947L23.7812 22.3629C23.8909 22.5898 24.0361 22.7959 24.211 22.9727L27.5019 26.307C27.9174 26.7276 28.5745 26.746 29.0105 26.3503L29.0632 26.3025C29.287 26.0995 29.4227 25.8124 29.4404 25.5051C29.4581 25.1982 29.3565 24.8958 29.1576 24.6669L26.379 21.4602L24.8695 15.7989L24.8642 15.8039L24.431 11.3751L25.9612 12.0886L28.4076 14.7567C28.7153 15.0928 29.2137 15.147 29.5817 14.8838L29.6066 14.8659C30.015 14.5749 30.1228 13.9979 29.8478 13.5698Z" fill="black"/>
<path d="M7.5658 5.5932L2.53635 2.03393H15.3949V0H0V26.4407H2.53635L7.5658 30V28.983V26.4407H13.6992V24.4068H7.5658V5.5932Z" fill="black"/>
</svg>
